<svg width="16" height="20" viewBox="0 0 16 20" fill="none" xmlns="http://www.w3.org/2000/svg">
<path d="M12.2488 20.0001V17.0895C12.2488 16.4844 12.7371 15.9922 13.3435 15.9922L15.6 15.9277L12.2488 20.0001Z" fill="#E8E8E8"/>
<path d="M14.5052 0H1.09341C0.488969 0 0 0.491549 0 1.09341V18.9047C0 19.5104 0.488969 19.9994 1.09341 19.9994H11.1592V16.116C11.1592 15.5122 11.652 15.0226 12.2552 15.0226H15.6006V1.09341C15.6006 0.491549 15.1116 0 14.5052 0ZM7.02168 15.818L4.22978 18.8331L1.50819 15.7425H2.86866V11.3695H5.65927V15.818H7.02168Z" fill="#E8E8E8"/>
<path d="M12.9397 7.6186C12.7215 7.25162 11.9675 7.13632 11.6217 7.08443C11.349 7.04351 11.0707 7.0313 10.7949 7.03153C10.5784 7.03017 10.3651 7.04023 10.1545 7.05154C10.0769 7.05645 10 7.06279 9.92325 7.06906C9.84455 6.99219 9.76849 6.91278 9.69488 6.83156C9.2265 6.30836 8.84833 5.71501 8.54018 5.09844C8.622 4.80052 8.68746 4.4896 8.72699 4.16671C8.79916 3.57737 8.82396 2.90575 8.58995 2.34388C8.50916 2.14996 8.29372 1.91388 8.04516 2.03144C7.7594 2.16664 7.67903 2.54967 7.65573 2.82119C7.63698 3.04066 7.6501 3.26069 7.68915 3.47649C7.72892 3.69375 7.79294 3.90005 7.86266 4.10606C7.92771 4.29495 7.9994 4.48237 8.07756 4.66804C8.02797 4.8142 7.97532 4.95782 7.92004 5.09776C7.79115 5.4167 7.65177 5.7197 7.51773 6.01118C7.44706 6.1557 7.37788 6.29717 7.3102 6.43547C7.09602 6.87943 6.86351 7.31526 6.60255 7.73656C5.99385 7.93918 5.44762 8.17408 4.99398 8.45012C4.75063 8.59849 4.53567 8.75962 4.35665 8.93636C4.18763 9.10321 4.01585 9.31974 4.00082 9.55944C3.99238 9.69475 4.04916 9.82604 4.16661 9.9063C4.32814 10.0202 4.5422 10.0126 4.72961 9.97554C5.34352 9.85402 5.81495 9.35602 6.21642 8.93631C6.49295 8.64721 6.80769 8.28011 7.13693 7.83615C7.13765 7.83513 7.13836 7.83411 7.13914 7.83309C7.70382 7.66789 8.31839 7.5284 8.97064 7.42587C9.26861 7.37924 9.57449 7.34109 9.88648 7.3143C10.1059 7.50822 10.3429 7.68479 10.6015 7.83225C10.803 7.94919 11.0172 8.04793 11.2415 8.12157C11.4682 8.19149 11.6963 8.24857 11.9319 8.28469C12.0509 8.30074 12.1725 8.30803 12.2968 8.30362C12.5742 8.29373 12.9723 8.19335 12.9984 7.87577C13.0064 7.77855 12.9842 7.69332 12.9397 7.6186ZM6.29931 8.20132C6.1694 8.39123 6.0441 8.56203 5.92605 8.71232C5.63694 9.08354 5.30675 9.52445 4.82867 9.68932C4.73788 9.72063 4.61833 9.75296 4.49231 9.74595C4.38007 9.73974 4.26939 9.69299 4.27448 9.57272C4.27699 9.50976 4.30963 9.42944 4.35971 9.35054C4.41451 9.26401 4.48237 9.18465 4.55586 9.11169C4.71332 8.95558 4.91241 8.80428 5.14144 8.66416C5.49272 8.44911 5.9121 8.25552 6.37957 8.0828C6.35268 8.12293 6.32584 8.16283 6.29931 8.20132ZM7.92974 3.43896C7.89369 3.24035 7.88824 3.03897 7.9104 2.84533C7.92142 2.74851 7.94232 2.65401 7.97257 2.56544C7.9982 2.49027 8.05354 2.30681 8.14183 2.28324C8.28737 2.24435 8.33211 2.53922 8.34858 2.62264C8.44237 3.09718 8.35972 3.62491 8.24718 4.0904C8.22927 4.16445 8.20933 4.2373 8.1889 4.30987C8.15404 4.21938 8.1208 4.12861 8.0902 4.03739C8.02431 3.83816 7.96406 3.63661 7.92974 3.43896ZM8.92895 7.18509C8.38212 7.26874 7.86194 7.37834 7.37297 7.50771C7.43184 7.49217 7.70089 7.01101 7.7609 6.91114C8.04366 6.44118 8.27497 5.94793 8.44118 5.43049C8.73466 5.97823 9.09085 6.50222 9.52843 6.96862C9.56874 7.01096 9.60971 7.05278 9.65139 7.0941C9.40619 7.11902 9.16487 7.14937 8.92895 7.18509ZM12.627 7.84604C12.607 7.94806 12.3761 8.00638 12.2684 8.02244C11.95 8.06969 11.6132 8.03187 11.3084 7.93528C11.0993 7.86904 10.8977 7.77884 10.7061 7.67032C10.5156 7.56174 10.3374 7.43401 10.1709 7.29316C10.3762 7.28152 10.5841 7.27389 10.793 7.27762C11.0019 7.27959 11.2125 7.28954 11.4204 7.31515C11.8104 7.35618 12.2474 7.4825 12.5543 7.7213C12.6148 7.76838 12.634 7.80998 12.627 7.84604Z" fill="#FB3449"/>
</svg>
