<svg width="15" height="15" viewBox="0 0 15 15" fill="none" xmlns="http://www.w3.org/2000/svg">
<path d="M2.97144 11.4627H13.3713L14.857 3.53906H4.45713L2.97144 11.4627Z" fill="white"/>
<path d="M15.0001 3.74005L14.7139 3.33594L8.9348 7.42947L5.86337 4.59406L5.52714 4.95807L7.27553 6.57176L2.79199 11.291L3.15099 11.6322L7.63928 6.90751L8.8937 8.06537L10.3029 7.06725L13.1618 11.5939L13.5808 11.3295L10.7077 6.78047L15.0001 3.74005Z" fill="#313145"/>
<path d="M4.63216 3.36271L4.28198 3.71289L5.02488 4.45579L5.37506 4.10561L4.63216 3.36271Z" fill="#A3A1A1"/>
<path d="M4.2095 4.77539H0.990479V5.27062H4.2095V4.77539Z" fill="#A3A1A1"/>
<path d="M3.71414 7.25195H0.495117V7.74718H3.71414V7.25195Z" fill="#A3A1A1"/>
<path d="M3.21902 9.72852H0V10.2237H3.21902V9.72852Z" fill="#A3A1A1"/>
<path d="M13.1235 2.05273H4.70459V2.54796H13.1235V2.05273Z" fill="#A3A1A1"/>
<path d="M4.20954 2.05273H2.97144V2.54796H4.20954V2.05273Z" fill="#A3A1A1"/>
<path d="M12.1333 0.814453H3.71436V1.30968H12.1333V0.814453Z" fill="#A3A1A1"/>
<path d="M3.21906 0.814453H1.98096V1.30968H3.21906V0.814453Z" fill="#A3A1A1"/>
<path d="M8.41883 12.4531H2.47607V12.9484H8.41883V12.4531Z" fill="#A3A1A1"/>
<path d="M1.98102 12.4531H0.74292V12.9484H1.98102V12.4531Z" fill="#A3A1A1"/>
<path d="M7.42857 13.6914H1.7334V14.1866H7.42857V13.6914Z" fill="#A3A1A1"/>
<path d="M1.2381 13.6914H0V14.1866H1.2381V13.6914Z" fill="#A3A1A1"/>
</svg>
