<svg width="11" height="14" viewBox="0 0 11 14" fill="none" xmlns="http://www.w3.org/2000/svg">
<path fill-rule="evenodd" clip-rule="evenodd" d="M0.205149 4.10546L4.66262 0.18093C4.93615 -0.0598984 5.37964 -0.0598984 5.65317 0.18093L10.1106 4.10546C10.3842 4.34629 10.3842 4.73675 10.1106 4.97758C9.83711 5.21841 9.39362 5.21841 9.12009 4.97758L5.15789 1.48911L1.1957 4.97758C0.922166 5.21841 0.478682 5.21841 0.205149 4.97758C-0.0683832 4.73675 -0.0683832 4.34629 0.205149 4.10546Z" fill="white"/>
<path fill-rule="evenodd" clip-rule="evenodd" d="M10.1105 9.89454L5.65305 13.8191C5.37952 14.0599 4.93604 14.0599 4.66251 13.8191L0.205034 9.89454C-0.0684977 9.65371 -0.0684977 9.26325 0.205034 9.02242C0.478567 8.78159 0.922051 8.78159 1.19558 9.02242L5.15778 12.5109L9.11998 9.02242C9.39351 8.78159 9.83699 8.78159 10.1105 9.02242C10.3841 9.26325 10.3841 9.65371 10.1105 9.89454Z" fill="white"/>
</svg>
