<svg width="180" height="48" viewBox="0 0 180 48" fill="none" xmlns="http://www.w3.org/2000/svg">
<path d="M172.578 23.3857C172.578 21.9184 173.964 21.451 174.948 21.451C176.243 21.451 177.098 21.9444 178.173 22.8923C178.394 23.087 178.614 23.139 178.782 22.9182L179.249 22.308C179.391 22.1132 179.443 21.9184 179.274 21.7237C178.148 20.3992 176.373 19.6721 174.935 19.6721C172.5 19.6721 170.57 21.1913 170.57 23.3857C170.57 27.9303 177.992 26.8396 177.992 30.0858C177.992 31.3583 176.891 32.0724 175.285 32.0724C173.575 32.0724 172.163 31.0207 171.477 30.3844C171.231 30.1637 171.088 30.1117 170.894 30.3584L170.285 31.1116C170.143 31.2804 170.143 31.4492 170.311 31.6439C171.283 32.7736 173.07 33.9162 175.337 33.9162C177.681 33.9162 180 32.423 180 30.1247C180.039 25.2944 172.578 26.4631 172.578 23.3857ZM161.931 31.9945C159.172 31.9945 157.151 29.6183 157.151 26.7617C157.151 23.944 159.172 21.5808 161.931 21.5808C164.69 21.5808 166.736 23.8012 166.736 26.7617C166.723 29.7612 164.69 31.9945 161.931 31.9945ZM162.086 19.711C159.988 19.711 158.356 20.6849 157.307 22.1521V13.7641C157.307 13.5174 157.138 13.3486 156.892 13.3486H155.649C155.403 13.3486 155.234 13.5174 155.234 13.7641V33.1372C155.234 33.3839 155.403 33.5527 155.649 33.5527H156.776C157.022 33.5527 157.164 33.3839 157.19 33.1372L157.307 31.4751C158.382 32.9164 159.988 33.8773 162.086 33.8773C165.946 33.8773 168.718 30.748 168.718 26.7877C168.718 22.8274 165.959 19.711 162.086 19.711ZM146.051 32.0205C143.318 32.0205 141.193 29.8391 141.193 26.7877C141.193 23.7363 143.318 21.5549 146.051 21.5549C148.784 21.5549 150.908 23.7363 150.908 26.7877C150.908 29.8391 148.784 32.0205 146.051 32.0205ZM146.051 33.9033C149.911 33.9033 152.903 30.7999 152.903 26.7877C152.903 22.7754 149.924 19.6721 146.051 19.6721C142.191 19.6721 139.199 22.7754 139.199 26.7877C139.199 30.7999 142.191 33.9033 146.051 33.9033ZM135.222 19.9837C134.976 19.9837 134.808 20.1525 134.808 20.3992V33.267C134.808 35.838 133.927 37.0326 131.958 37.1754C131.764 37.1754 131.686 37.3182 131.738 37.474L132.101 38.7725C132.126 38.9153 132.243 39.0192 132.398 39.0192C135.157 38.9023 136.867 37.1884 136.867 33.3969V20.3992C136.867 20.1525 136.699 19.9837 136.453 19.9837H135.222ZM135.831 16.7505C136.582 16.7505 137.152 16.1662 137.152 15.4261C137.152 14.686 136.569 14.1017 135.831 14.1017C135.08 14.1017 134.51 14.686 134.51 15.4261C134.51 16.1662 135.093 16.7505 135.831 16.7505ZM128.629 33.9033C129.73 33.9033 130.611 33.0203 130.611 31.8777C130.611 30.774 129.73 29.891 128.629 29.891C127.502 29.891 126.609 30.774 126.609 31.8777C126.609 33.0203 127.502 33.9033 128.629 33.9033ZM121.622 23.3338C123.06 22.3599 123.992 20.9835 123.992 19.2436C123.992 16.1143 121.311 13.9588 118.254 13.9588C116.104 13.9588 114.109 14.8937 112.905 16.335C112.736 16.5298 112.762 16.7505 112.931 16.9193L114.614 18.5294C114.809 18.7242 115.003 18.7502 115.223 18.5294C116.026 17.7244 116.933 17.2829 118.15 17.2829C119.368 17.2829 120.767 18.1399 120.767 19.5552C120.767 20.7498 120.08 22.0742 117.373 22.1521C117.075 22.1521 116.933 22.3209 116.933 22.5677V24.5283C116.933 24.775 117.075 24.9438 117.347 24.9438C120.106 25.0218 121.104 26.3851 121.104 27.7355C121.104 29.2807 119.912 30.5922 117.878 30.5922C116.311 30.5922 115.417 30.0338 114.588 29.3197C114.368 29.1249 114.174 29.1249 113.98 29.3197L112.296 30.9298C112.127 31.0986 112.102 31.3193 112.27 31.5141C113.539 32.9813 115.638 33.9162 118.099 33.9162C122.153 33.9162 124.692 31.3193 124.692 27.9952C124.679 25.7489 123.357 24.1907 121.622 23.3338ZM103.371 30.5922C101.39 30.5922 99.926 28.8263 99.926 26.7747C99.926 24.7231 101.39 23.0091 103.371 23.0091C105.392 23.0091 106.856 24.6192 106.856 26.7747C106.843 28.9561 105.379 30.5922 103.371 30.5922ZM103.812 19.6851C102.206 19.6851 100.884 20.3992 99.8871 21.451V13.7511C99.8871 13.5044 99.7187 13.3356 99.4726 13.3356H96.6619C96.4158 13.3356 96.2474 13.5044 96.2474 13.7511V33.1242C96.2474 33.3709 96.4158 33.5397 96.6619 33.5397H99.2006C99.4467 33.5397 99.5892 33.3709 99.6151 33.1242L99.7317 31.9556C100.703 33.0852 102.05 33.8903 103.812 33.8903C107.594 33.8903 110.353 30.735 110.353 26.7747C110.353 22.8144 107.594 19.6851 103.812 19.6851ZM87.7763 22.7884C89.4083 22.7884 90.7036 23.8402 90.9497 25.7489H84.4863C84.7972 23.8402 86.1184 22.7884 87.7763 22.7884ZM94.175 26.489C94.175 22.8144 91.6621 19.6851 87.7374 19.6851C83.8128 19.6851 80.9243 22.8144 80.9243 26.8007C80.9243 30.7869 83.8257 33.9162 88.0483 33.9162C90.0042 33.9162 91.7787 33.1372 93.074 31.8387C93.2942 31.618 93.2942 31.4232 93.0999 31.2284L91.8823 30.0338C91.688 29.8391 91.5196 29.8391 91.2735 30.0079C90.3409 30.6701 89.4731 30.9428 88.398 30.9428C86.2738 30.9428 84.8878 29.917 84.5381 28.1251H93.2035C94.0454 28.1251 94.175 27.5667 94.175 26.489ZM80.2378 19.9837H77.4789C77.2587 19.9837 77.0644 20.1006 76.9867 20.3213L73.9169 29.3197L70.6916 20.3213C70.6398 20.1785 70.5492 20.0746 70.4196 20.0486C70.3678 20.0227 70.2772 19.9967 70.1994 19.9967H67.6089C67.5312 19.9967 67.4405 20.0227 67.3887 20.0486C67.2462 20.0746 67.1685 20.1915 67.1167 20.3213L63.9174 29.3197L60.7698 20.3213C60.6921 20.1006 60.4978 19.9837 60.2776 19.9837H57.5187C57.2208 19.9837 57.0783 20.1525 57.1819 20.4512L61.8967 33.2151C61.9745 33.4358 62.1687 33.5527 62.3889 33.5527H65.1479C65.3681 33.5527 65.5624 33.4358 65.6401 33.2151L68.8653 24.7491L72.0905 33.2151C72.1683 33.4358 72.3625 33.5527 72.5827 33.5527H75.3158C75.536 33.5527 75.7303 33.4358 75.808 33.2151L80.5228 20.4512C80.6782 20.1525 80.5357 19.9837 80.2378 19.9837Z" fill="white"/>
<path d="M41.2415 11.9199C42.2907 11.868 43.3399 12.0238 44.3243 12.3614C40.1923 4.7394 32.2394 0 23.5869 0C10.5565 0 0 10.5825 0 23.645C0 36.7076 10.5565 47.2901 23.5869 47.2901C36.6174 47.2901 47.1739 36.7076 47.1739 23.645C47.1739 23.5282 47.1739 23.4243 47.1739 23.3074C47.1091 20.6196 46.2413 16.4775 43.845 14.8934C43.4694 14.6467 43.0549 14.4649 42.6145 14.361C33.8585 12.4003 37.1225 30.3451 32.3948 30.3451C29.61 30.3451 29.1307 23.2036 28.7551 21.2299C28.1852 18.3084 27.2655 14.5168 23.5869 14.5039C22.758 14.5039 21.929 14.7246 21.2425 15.192C19.3773 16.4516 18.7944 19.2433 18.3929 21.3208C18.0173 23.2945 17.538 30.3451 14.7661 30.3451C11.9942 30.3451 11.515 23.2945 11.1394 21.3208C10.7119 19.0874 10.0902 16.036 7.83641 14.9323C7.64212 14.8415 7.44782 14.7635 7.24058 14.6986C6.852 15.4258 6.51523 16.1789 6.23027 16.958C6.37275 16.9839 6.50227 17.0099 6.6318 17.0618C6.73542 17.1008 6.83905 17.1527 6.92971 17.2047C8.0307 17.9578 8.50995 20.5287 8.75605 21.7882C9.44255 25.3201 9.75341 32.7733 14.7532 32.7733C19.74 32.7733 20.0638 25.3201 20.7503 21.7882C20.9964 20.5287 21.4627 17.9578 22.5766 17.2047C22.7709 17.0748 22.9911 16.9969 23.2113 16.958H23.2372H23.8978H23.9237C24.1569 16.9969 24.3641 17.0748 24.5584 17.2047C25.6594 17.9578 26.1386 20.5287 26.3847 21.7882C27.0712 25.3201 27.3821 32.7733 32.3818 32.7733C37.3816 32.7733 37.6925 25.3201 38.379 21.7882C38.6121 20.5547 39.1173 17.8279 40.2701 17.1657C40.8788 16.8151 41.5783 16.6204 42.2648 16.893C44.2206 17.6721 44.7517 21.8142 44.7517 23.645C44.7517 23.7489 44.7517 23.8658 44.7517 23.9697C44.5833 35.565 35.1408 44.875 23.574 44.875C11.8777 44.875 2.39626 35.3702 2.39626 23.645C2.39626 11.9199 11.8906 2.41515 23.5869 2.41515C30.698 2.41515 37.3039 5.98592 41.2415 11.9199Z" fill="white"/>
</svg>
