<svg width="35" height="35" viewBox="0 0 35 35" fill="none" xmlns="http://www.w3.org/2000/svg">
<path d="M29.8243 9.31212C30.5552 9.27753 31.2861 9.38564 31.978 9.61918C29.0934 4.30842 23.5318 1 17.4859 1C8.38231 1 1 8.38231 1 17.4859C1 26.5894 8.38231 33.9717 17.4859 33.9717C26.5894 33.9717 33.9717 26.5894 33.9717 17.4859C33.9717 17.408 33.9717 17.3302 33.9674 17.2523C33.9241 15.3797 33.3144 12.4908 31.645 11.388C31.3812 11.215 31.0914 11.0896 30.7844 11.0204C24.6649 9.65378 26.9484 22.1695 23.6399 22.1695C21.6981 22.1695 21.3608 17.1918 21.0927 15.8122C20.6991 13.7752 20.0504 11.1285 17.4815 11.1199C16.902 11.1199 16.3268 11.2799 15.8468 11.5999C14.5407 12.4821 14.1385 14.4283 13.8574 15.8727C13.5936 17.248 13.2606 22.1652 11.3231 22.1652C9.38997 22.1652 9.05697 17.2437 8.78883 15.8727C8.4861 14.3158 8.05363 12.1881 6.48375 11.4183C6.34969 11.3534 6.2113 11.2972 6.06858 11.2539C5.79612 11.7599 5.56259 12.2875 5.36797 12.8281C5.46312 12.8411 5.55826 12.8627 5.64908 12.8973C5.7226 12.9233 5.7918 12.9579 5.85667 13.0011C6.62647 13.5244 6.9638 15.3148 7.13246 16.1971C7.60818 18.6622 7.83307 23.8562 11.3231 23.8562C14.8132 23.8562 15.0381 18.6622 15.5138 16.1971C15.6824 15.3192 16.0155 13.5244 16.7896 13.0054C16.9236 12.9146 17.075 12.8584 17.235 12.8325L17.248 12.8281H17.7151L17.728 12.8325C17.8881 12.8584 18.0394 12.9146 18.1735 13.0054C18.9476 13.5244 19.2763 15.3235 19.4493 16.1971C19.925 18.6622 20.1499 23.8562 23.6399 23.8562C27.13 23.8562 27.3549 18.6622 27.8306 16.1971C27.9949 15.3365 28.3452 13.4379 29.1496 12.9752C29.5778 12.7287 30.0665 12.5946 30.5422 12.7849C31.9045 13.3255 32.2851 16.2144 32.2851 17.4902C32.2851 17.5637 32.2851 17.6415 32.2851 17.7151C32.164 25.798 25.5731 32.2894 17.4859 32.2894C9.31213 32.2894 2.68664 25.6639 2.68664 17.4902C2.68664 9.31645 9.31213 2.69097 17.4859 2.69097C22.455 2.69097 27.0781 5.17769 29.8243 9.31212Z" fill="white"/>
<path d="M29.8243 9.31212C30.5552 9.27753 31.2861 9.38565 31.978 9.61918C29.0934 4.30842 23.5318 1 17.4859 1C8.38231 1 1 8.38231 1 17.4859C1 26.5894 8.38231 33.9717 17.4859 33.9717C26.5894 33.9717 33.9717 26.5894 33.9717 17.4859C33.9717 17.408 33.9717 17.3302 33.9674 17.2523C33.9241 15.3797 33.3144 12.4908 31.645 11.388C31.3812 11.215 31.0914 11.0896 30.7844 11.0204C24.6649 9.65378 26.9484 22.1695 23.6399 22.1695C21.6981 22.1695 21.3608 17.1918 21.0927 15.8122C20.6991 13.7752 20.0504 11.1285 17.4815 11.1199C16.902 11.1199 16.3268 11.2799 15.8468 11.5999C14.5407 12.4821 14.1385 14.4283 13.8574 15.8727C13.5936 17.248 13.2606 22.1652 11.3231 22.1652C9.38997 22.1652 9.05697 17.2437 8.78883 15.8727C8.4861 14.3158 8.05363 12.1881 6.48375 11.4183C6.34969 11.3534 6.2113 11.2972 6.06858 11.2539C5.79612 11.7599 5.56259 12.2875 5.36797 12.8281C5.46312 12.8411 5.55826 12.8627 5.64908 12.8973C5.7226 12.9233 5.7918 12.9579 5.85667 13.0011C6.62647 13.5244 6.9638 15.3148 7.13246 16.1971C7.60818 18.6622 7.83307 23.8562 11.3231 23.8562C14.8132 23.8562 15.0381 18.6622 15.5138 16.1971C15.6824 15.3192 16.0155 13.5244 16.7896 13.0054C16.9236 12.9146 17.075 12.8584 17.235 12.8325L17.248 12.8281H17.7151L17.728 12.8325C17.8881 12.8584 18.0394 12.9146 18.1735 13.0054C18.9476 13.5244 19.2763 15.3235 19.4493 16.1971C19.925 18.6622 20.1499 23.8562 23.6399 23.8562C27.13 23.8562 27.3549 18.6622 27.8306 16.1971C27.9949 15.3365 28.3452 13.4379 29.1496 12.9752C29.5778 12.7287 30.0665 12.5946 30.5422 12.7849C31.9045 13.3255 32.2851 16.2144 32.2851 17.4902C32.2851 17.5637 32.2851 17.6415 32.2851 17.7151C32.164 25.798 25.5731 32.2894 17.4859 32.2894C9.31213 32.2894 2.68664 25.6639 2.68664 17.4902C2.68664 9.31645 9.31213 2.69097 17.4859 2.69097C22.455 2.69097 27.0781 5.17769 29.8243 9.31212Z" stroke="white" stroke-width="0.5" stroke-miterlimit="10" stroke-linecap="round"/>
</svg>
